# xmcd CD database file
#
# Track frame offsets:
#	150
#	15637
#	33482
#	48770
#	62372
#	80290
#	91330
#	102947
#	117740
#	134962
#	148000
#	158527
#	178472
#	194027
#	214815
#	231215
#	247690
#	265717
#	281072
#	299080
#	317240
#	333752
#
# Disc length: 4662 seconds
#
# Revision: 1
# Processed by: cddbd v1.5.2PL0 Copyright (c) Steve Scherf et al.
# Submitted via: CDex 1.51
#
DISCID=4c123416
DTITLE=Adam Brand  - Special Bonus Edition
DYEAR=2004
DGENRE=Country
TTITLE0=Adam Brand - Uncle Pete
TTITLE1=Adam Brand - Never Live Without You
TTITLE2=Adam Brand - Grandpa's Piano
TTITLE3=Adam Brand - My Mind's Made Up
TTITLE4=Adam Brand - Came From The Heart
TTITLE5=Adam Brand - Feelin' Single Seein' Double
TTITLE6=Adam Brand - Losing Streak
TTITLE7=Adam Brand - Last Man Standing
TTITLE8=Adam Brand - Size Two Boots
TTITLE9=Adam Brand - Dirt Track Cowboys
TTITLE10=Adam Brand - My Mama Told Me
TTITLE11=Adam Brand - Here And There
TTITLE12=Adam Brand - King Of The Road
TTITLE13=Adam Brand - Words Cannot Say
TTITLE14=Adam Brand - Love Away The Night
TTITLE15=Adam Brand - Gospel Medley
TTITLE16=Adam Brand - Uncle Pete
TTITLE17=Adam Brand - Charleville
TTITLE18=Adam Brand - Never Live Without You
TTITLE19=Adam Brand - Size Two Boots
TTITLE20=Adam Brand - T Bird
TTITLE21=Adam Brand - Trouble
EXTD=YEAR: 2004
EXTT0=
EXTT1=
EXTT2=
EXTT3=
EXTT4=
EXTT5=
EXTT6=
EXTT7=
EXTT8=
EXTT9=
EXTT10=
EXTT11=
EXTT12=
EXTT13=
EXTT14=
EXTT15=
EXTT16=
EXTT17=
EXTT18=
EXTT19=
EXTT20=
EXTT21=
PLAYORDER=
